{"title":"Black Mass(2015)MPEG-4[DaScubaDude]","uid":14716149,"size":1333574278,"categoryP":"video","categoryS":"movies","magnet":"?xt=urn:btih:ccdd8782da01243e9f06407254e06b4964aefde4&amp;dn=Black+Mass%282015%29MPEG-4%5BDaScubaDude%5D&amp;tr=udp%3A%2F%2Ftracker.leechers-paradise.org%3A6969&amp;tr=udp%3A%2F%2Fzer0day.ch%3A1337&amp;tr=udp%3A%2F%2Fopen.demonii.com%3A1337&amp;tr=udp%3A%2F%2Ftracker.coppersurfer.tk%3A6969&amp;tr=udp%3A%2F%2Fexodus.desync.com%3A6969","seeders":1,"leechers":0,"uploader":"dascuba","files":1,"time":1464470140,"description":"Black Mass (2015)\r\nR | 2h 3min | Biography, Crime, Drama | 18 September 2015 (USA)\r\nThe true story of Whitey Bulger, the brother of a state senator and the most infamous violent criminal in the history of South Boston, who became an FBI informant to take down a Mafia family invading his turf.\r\nDirector: Scott Cooper\r\nWriters: Mark Mallouk (screenplay), Jez Butterworth (screenplay) | \r\nStars: Johnny Depp, Benedict Cumberbatch, Dakota Johnson |\r\n\r\nGeneral\r\nComplete name                            : BlackMassBLACK_MASS_Title1.mp4\r\nFormat                                   : MPEG-4\r\nFormat profile                           : Base Media\r\nCodec ID                                 : isom (isom/iso2/avc1/mp41)\r\nFile size                                : 1.24 GiB\r\nDuration                                 : 2h 2mn\r\nOverall bit rate                         : 1 451 Kbps\r\nMovie name                               : BLACK_MASS\r\nGenre                                    : Crime\r\nWriting application                      : Lavf54.6.100\r\n\r\nVideo\r\nID                                       : 1\r\nFormat                                   : AVC\r\nFormat/Info                              : Advanced Video Codec\r\nFormat profile                           :   \r\nFormat settings, CABAC                   : No\r\nFormat settings, ReFrames                : 6 frames\r\nCodec ID                                 : avc1\r\nCodec ID/Info                            : Advanced Video Coding\r\nDuration                                 : 2h 2mn\r\nBit rate                                 : 1 194 Kbps\r\nWidth                                    : 720 pixels\r\nHeight                                   : 404 pixels\r\nDisplay aspect ratio                     : 16:9\r\nFrame rate mode                          : Constant\r\nFrame rate                               : 29.970 (30000/1001) fps\r\nColor space                              : YUV\r\nChroma subsampling                       : 4:2:0\r\nBit depth                                : 8 bits\r\nScan type                                : Progressive\r\nBits/(Pixel*Frame)                       : 0.137\r\nStream size                              : 1.02 GiB (82%)\r\n\r\nAudio\r\nID                                       : 2\r\nFormat                                   : AAC\r\nFormat/Info                              : Advanced Audio Codec\r\nFormat profile                           : LC\r\nCodec ID                                 : 40\r\nDuration                                 : 2h 2mn\r\nBit rate mode                            : Constant\r\nBit rate                                 : 251 Kbps\r\nChannel(s)                               : 2 channels\r\nChannel(s)_Original                      : 6 channels\r\nChannel positions                        : Front: L C R, Side: L R, LFE\r\nSampling rate                            : 44.1 KHz\r\nFrame rate                               : 43.066 fps (1024 spf)\r\nCompression mode                         : Lossy\r\nStream size                              : 220 MiB (17%)\r\nDefault                                  : Yes\r\nAlternate group                          : 1","torrent":{"xt":"urn:btih:ccdd8782da01243e9f06407254e06b4964aefde4","amp;dn":"Black+Mass%282015%29MPEG-4%5BDaScubaDude%5D","amp;tr":["udp%3A%2F%2Ftracker.leechers-paradise.org%3A6969","udp%3A%2F%2Fzer0day.ch%3A1337","udp%3A%2F%2Fopen.demonii.com%3A1337","udp%3A%2F%2Ftracker.coppersurfer.tk%3A6969","udp%3A%2F%2Fexodus.desync.com%3A6969"],"infoHash":"ccdd8782da01243e9f06407254e06b4964aefde4","infoHashBuffer":{"type":"Buffer","data":[204,221,135,130,218,1,36,62,159,6,64,114,84,224,107,73,100,174,253,228]},"announce":[],"urlList":[]}}